<svg xmlns="http://www.w3.org/2000/svg" xmlns:xlink="http://www.w3.org/1999/xlink" version="1.1" x="0px" y="0px" viewBox="0 0 256 256" enable-background="new 0 0 256 256" xml:space="preserve"><g><rect x="33" y="40" width="10" height="9"></rect><rect x="52" y="40" width="10" height="9"></rect><rect x="71" y="40" width="10" height="9"></rect><rect x="90" y="40" width="10" height="9"></rect><rect x="109" y="40" width="10" height="9"></rect><rect x="128" y="40" width="10" height="9"></rect><rect x="52" y="135" width="10" height="9"></rect><rect x="33" y="59" width="10" height="9"></rect><rect x="33" y="78" width="10" height="9"></rect><rect x="33" y="97" width="10" height="9"></rect><rect x="33" y="116" width="10" height="9"></rect><rect x="33" y="135" width="10" height="9"></rect><rect x="128" y="59" width="10" height="9"></rect><path d="M153.681,88h8.516c-1.531-1.552-2.931-2.974-4.143-4.208L153.681,88z"></path><path d="M210,217h-88v-89h76.535c-0.179-2.244-1.114-4.341-2.693-5.997l-0.431-0.435c-0.462-0.467-0.985-0.993-1.555-1.569H178   v-16.01c-2.672-2.7-5.389-5.446-8-8.088V120h-56v57H82V88h55.646c-0.063-0.247-0.104-1-0.15-1H138v-9h-10v2H74v55h-3v9h3v41h40v40   h104v-80.759c-2.484,1.635-5.175,2.904-8,3.784V217z"></path><path d="M219.161,99.511l-41.957-42.474l9.676-9.311c1.681-1.617,1.147-2.99-1.185-3.052l-37.617-0.994   c-0.037-0.001-0.074-0.001-0.111-0.001c-2.281,0-4.151,1.835-4.179,4.13l-0.452,37.629c-0.018,1.44,0.492,2.214,1.28,2.214   c0.488,0,1.082-0.297,1.724-0.915l11.843-11.396c5.233,5.438,41.934,42.45,41.957,42.475c6.068,6.305,5.875,16.225-0.43,22.292   c-0.002,0.002-0.003-0.105-0.003-0.107l-3.084,3.079c1.274,0.188,2.558,0.339,3.844,0.339c6.474,0,12.955-2.342,17.989-7.186   C228.791,126.288,229.107,109.848,219.161,99.511z"></path><polygon points="199.707,140 199.707,140.001 199.708,140  "></polygon></g></svg>